<svg xmlns="http://www.w3.org/2000/svg" preserveAspectRatio="none" viewBox="0 0 1167.459 416.627"><path d="M525.283 415.284c-3.3-.963-8.065-2.823-10.588-4.133-2.524-1.31-8.775-3.806-13.892-5.546-9.452-3.215-14.186-6.284-14.186-9.197 0-3.086-5.673-8.797-10.76-10.832-3.123-1.25-6.155-3.804-7.776-6.552-1.619-2.743-4.117-4.85-6.394-5.392-4.377-1.04-8.404-4.225-8.404-6.646 0-3.166-35.98-42.79-44.208-48.684-1.948-1.396-4.43-5.141-5.514-8.323-1.084-3.182-4.174-8.672-6.866-12.2-9.533-12.487-13.748-23.2-15.442-39.238-.652-6.175-1.981-12.022-2.954-12.995-.972-.972-15.248-4.716-31.725-8.32-51.3-11.22-64.715-15.18-95.702-28.25-22.35-9.426-69.162-33.493-98.255-50.513-33.134-19.384-50.852-28.075-70-34.336-3.3-1.08-13.01-2.406-21.579-2.95-11.497-.728-16.539-1.616-19.244-3.388-2.016-1.32-7.578-3.666-12.36-5.211-6.997-2.26-9.497-3.86-12.792-8.19C11.694 97.89 1.139 71.968.25 64.133c-.59-5.19-.347-5.746 3.075-7.047 2.043-.777 5.664-3.124 8.048-5.217 11.529-10.123 41.522-14.187 113.91-15.437 24.567-.423 47.067-1.02 50-1.323 2.934-.304 11.334-.9 18.667-1.324l25.333-1.468c18.179-1.055 30.512-3.05 46.667-7.543 16.97-4.721 24.603-5.103 49.845-2.495 13.816 1.427 32.928 1.677 84.666 1.106 36.752-.406 68.322-1.035 70.156-1.398 1.833-.362 11.433-1.043 21.333-1.513 9.9-.47 20.4-1.095 23.333-1.39 2.934-.296 11.934-.894 20-1.33 36.703-1.98 48.754-3.883 83.688-13.223C631.057 1.3 639.481-.237 643.637.03c6.05.388 6.33.586 6.73 4.737.654 6.779 6.67 8.696 32.25 10.277 75.646 4.678 104.063 7.655 145.333 15.225 48.8 8.952 88.722 21.879 122.667 39.72 13.87 7.29 39.135 23.276 50.49 31.947 3.241 2.474 7.457 4.497 9.368 4.494 1.911-.003 10.975-1.512 20.142-3.353 32.086-6.446 66.26-5.86 91.99 1.578 18.546 5.36 47.41 20.157 44.67 22.899-.468.467-6.057 1.224-12.422 1.683-10.985.792-12.315 1.244-26.238 8.926-19.636 10.833-34.102 16.478-44.334 17.3-4.583.37-8.333 1.25-8.333 1.959 0 .708 3.606 5.467 8.013 10.574 4.406 5.108 8.826 10.896 9.82 12.863 3.21 6.348 4.65 16.467 5.343 37.576 1.021 31.07 3.67 40.165 17.517 60.155 4.14 5.974 7.84 11.684 8.225 12.687 2.646 6.895-31.086-6.18-52.918-20.512-35.714-23.445-68.085-63.307-77.687-95.663-6.222-20.968-15.653-30.184-37.06-36.215-6.92-1.95-13.372-2.41-33.253-2.375-28.39.05-48.17 2.422-77.333 9.27-10.634 2.497-24.144 5.13-30.023 5.854-16.51 2.028-35.75 8.678-83.57 28.886-72.253 30.532-119.173 47.07-158.328 55.808-10.59 2.363-19.466 4.933-19.726 5.71-.26.779 4.805 4.75 11.254 8.824 6.45 4.075 17.126 11.43 23.726 16.344 6.6 4.914 18.3 11.926 26 15.583 16.152 7.67 21.333 11.025 21.333 13.809 0 2.676-13.7 8.8-21.326 9.533-5.462.525-16.835-1.723-45.34-8.962-9.179-2.331-21.977-8.476-25.493-12.24-2.62-2.805-4.824-3.83-8.24-3.83-3.782 0-5.915-1.225-11.279-6.477-5.659-5.54-8-6.816-16.2-8.826-10.07-2.468-14.696-5.534-24.8-16.44l-5.322-5.745-15.226 1.078c-16.435 1.163-20.296 3.18-10.92 5.705 9 2.423 13.013 7.083 21.73 25.225 4.438 9.239 9.685 19.202 11.66 22.14 1.975 2.937 4.922 8.616 6.55 12.62 1.626 4.003 6.434 13.003 10.683 20 4.249 6.996 9.393 15.636 11.431 19.198 5.03 8.79 20.04 24.365 35.785 37.133 15.349 12.446 17.845 15.604 15.621 19.76-4.078 7.62-27.95 12.71-41.314 8.812z"/></svg>